<mxfile host="app.diagrams.net" agent="Mozilla/5.0 (Windows NT 10.0; Win64; x64) AppleWebKit/537.36 (KHTML, like Gecko) Chrome/139.0.0.0 Safari/537.36" version="28.2.0">
  <diagram name="Page-1" id="yFzHbiL5m0khSHbw-59z">
    <mxGraphModel dx="1895" dy="958" grid="1" gridSize="10" guides="1" tooltips="1" connect="1" arrows="1" fold="1" page="1" pageScale="1" pageWidth="850" pageHeight="1100" math="0" shadow="0">
      <root>
        <mxCell id="0" />
        <mxCell id="1" parent="0" />
        <mxCell id="8AiuHxzULNRMs2Ny43_H-3" value="" style="edgeStyle=orthogonalEdgeStyle;rounded=0;orthogonalLoop=1;jettySize=auto;html=1;" edge="1" parent="1" source="8AiuHxzULNRMs2Ny43_H-1" target="8AiuHxzULNRMs2Ny43_H-2">
          <mxGeometry relative="1" as="geometry" />
        </mxCell>
        <mxCell id="8AiuHxzULNRMs2Ny43_H-1" value="Start" style="ellipse;whiteSpace=wrap;html=1;fillColor=#6d8764;strokeColor=#3A5431;fontColor=#ffffff;" vertex="1" parent="1">
          <mxGeometry x="130" y="50" width="220" height="80" as="geometry" />
        </mxCell>
        <mxCell id="8AiuHxzULNRMs2Ny43_H-5" value="" style="edgeStyle=orthogonalEdgeStyle;rounded=0;orthogonalLoop=1;jettySize=auto;html=1;" edge="1" parent="1" source="8AiuHxzULNRMs2Ny43_H-2" target="8AiuHxzULNRMs2Ny43_H-4">
          <mxGeometry relative="1" as="geometry" />
        </mxCell>
        <mxCell id="8AiuHxzULNRMs2Ny43_H-14" value="" style="edgeStyle=orthogonalEdgeStyle;rounded=0;orthogonalLoop=1;jettySize=auto;html=1;" edge="1" parent="1" source="8AiuHxzULNRMs2Ny43_H-2" target="8AiuHxzULNRMs2Ny43_H-13">
          <mxGeometry relative="1" as="geometry" />
        </mxCell>
        <mxCell id="8AiuHxzULNRMs2Ny43_H-2" value="New User" style="rhombus;whiteSpace=wrap;html=1;fillColor=#fa6800;fontColor=#000000;strokeColor=#C73500;" vertex="1" parent="1">
          <mxGeometry x="160" y="210" width="160" height="80" as="geometry" />
        </mxCell>
        <mxCell id="8AiuHxzULNRMs2Ny43_H-7" value="" style="edgeStyle=orthogonalEdgeStyle;rounded=0;orthogonalLoop=1;jettySize=auto;html=1;" edge="1" parent="1" source="8AiuHxzULNRMs2Ny43_H-4" target="8AiuHxzULNRMs2Ny43_H-6">
          <mxGeometry relative="1" as="geometry" />
        </mxCell>
        <mxCell id="8AiuHxzULNRMs2Ny43_H-4" value="Recognise the face" style="shape=parallelogram;perimeter=parallelogramPerimeter;whiteSpace=wrap;html=1;fixedSize=1;fillColor=#fa6800;fontColor=#000000;strokeColor=#C73500;" vertex="1" parent="1">
          <mxGeometry x="90" y="380" width="300" height="60" as="geometry" />
        </mxCell>
        <mxCell id="8AiuHxzULNRMs2Ny43_H-9" value="" style="edgeStyle=orthogonalEdgeStyle;rounded=0;orthogonalLoop=1;jettySize=auto;html=1;" edge="1" parent="1" source="8AiuHxzULNRMs2Ny43_H-6" target="8AiuHxzULNRMs2Ny43_H-8">
          <mxGeometry relative="1" as="geometry" />
        </mxCell>
        <mxCell id="8AiuHxzULNRMs2Ny43_H-18" value="" style="edgeStyle=orthogonalEdgeStyle;rounded=0;orthogonalLoop=1;jettySize=auto;html=1;" edge="1" parent="1" source="8AiuHxzULNRMs2Ny43_H-6">
          <mxGeometry relative="1" as="geometry">
            <mxPoint x="780" y="260" as="targetPoint" />
            <Array as="points">
              <mxPoint x="841" y="565" />
            </Array>
          </mxGeometry>
        </mxCell>
        <mxCell id="8AiuHxzULNRMs2Ny43_H-6" value="Face Recognized" style="rhombus;whiteSpace=wrap;html=1;fillColor=#1ba1e2;fontColor=#ffffff;strokeColor=#006EAF;" vertex="1" parent="1">
          <mxGeometry x="140" y="510" width="200" height="110" as="geometry" />
        </mxCell>
        <mxCell id="8AiuHxzULNRMs2Ny43_H-11" value="" style="edgeStyle=orthogonalEdgeStyle;rounded=0;orthogonalLoop=1;jettySize=auto;html=1;" edge="1" parent="1" source="8AiuHxzULNRMs2Ny43_H-8" target="8AiuHxzULNRMs2Ny43_H-10">
          <mxGeometry relative="1" as="geometry" />
        </mxCell>
        <mxCell id="8AiuHxzULNRMs2Ny43_H-8" value="Store in csv. file with Registration Number &amp;amp; Date,&lt;div&gt;&amp;nbsp;Time of Entry&lt;/div&gt;" style="shape=parallelogram;perimeter=parallelogramPerimeter;whiteSpace=wrap;html=1;fixedSize=1;fillColor=#6d8764;strokeColor=#3A5431;fontColor=#ffffff;" vertex="1" parent="1">
          <mxGeometry x="80" y="725" width="320" height="85" as="geometry" />
        </mxCell>
        <mxCell id="8AiuHxzULNRMs2Ny43_H-10" value="End" style="ellipse;whiteSpace=wrap;html=1;fillColor=#647687;fontColor=#ffffff;strokeColor=#314354;" vertex="1" parent="1">
          <mxGeometry x="120" y="900" width="240" height="90" as="geometry" />
        </mxCell>
        <mxCell id="8AiuHxzULNRMs2Ny43_H-16" value="" style="edgeStyle=orthogonalEdgeStyle;rounded=0;orthogonalLoop=1;jettySize=auto;html=1;" edge="1" parent="1" source="8AiuHxzULNRMs2Ny43_H-13" target="8AiuHxzULNRMs2Ny43_H-15">
          <mxGeometry relative="1" as="geometry" />
        </mxCell>
        <mxCell id="8AiuHxzULNRMs2Ny43_H-13" value="Give your photograph" style="whiteSpace=wrap;html=1;fillColor=#e3c800;fontColor=#000000;strokeColor=#B09500;" vertex="1" parent="1">
          <mxGeometry x="510" y="210" width="260" height="80" as="geometry" />
        </mxCell>
        <mxCell id="8AiuHxzULNRMs2Ny43_H-19" value="" style="edgeStyle=orthogonalEdgeStyle;rounded=0;orthogonalLoop=1;jettySize=auto;html=1;" edge="1" parent="1" source="8AiuHxzULNRMs2Ny43_H-15" target="8AiuHxzULNRMs2Ny43_H-4">
          <mxGeometry relative="1" as="geometry" />
        </mxCell>
        <mxCell id="8AiuHxzULNRMs2Ny43_H-15" value="Store the face date in folder on your name" style="whiteSpace=wrap;html=1;fillColor=#647687;fontColor=#ffffff;strokeColor=#314354;" vertex="1" parent="1">
          <mxGeometry x="500" y="380" width="280" height="60" as="geometry" />
        </mxCell>
        <mxCell id="8AiuHxzULNRMs2Ny43_H-20" value="NO" style="text;html=1;align=center;verticalAlign=middle;whiteSpace=wrap;rounded=0;" vertex="1" parent="1">
          <mxGeometry x="470" y="535" width="60" height="30" as="geometry" />
        </mxCell>
        <mxCell id="8AiuHxzULNRMs2Ny43_H-21" value="YES" style="text;html=1;align=center;verticalAlign=middle;whiteSpace=wrap;rounded=0;" vertex="1" parent="1">
          <mxGeometry x="350" y="220" width="60" height="30" as="geometry" />
        </mxCell>
        <mxCell id="8AiuHxzULNRMs2Ny43_H-22" value="YES" style="text;html=1;align=center;verticalAlign=middle;whiteSpace=wrap;rounded=0;" vertex="1" parent="1">
          <mxGeometry x="180" y="650" width="60" height="30" as="geometry" />
        </mxCell>
        <mxCell id="8AiuHxzULNRMs2Ny43_H-23" value="NO" style="text;html=1;align=center;verticalAlign=middle;whiteSpace=wrap;rounded=0;" vertex="1" parent="1">
          <mxGeometry x="190" y="310" width="60" height="30" as="geometry" />
        </mxCell>
      </root>
    </mxGraphModel>
  </diagram>
</mxfile>
